HIERARCHY
ROOT Hips
{
	OFFSET 0.000000 97.167313 0.000000
	CHANNELS 6 Xposition Yposition Zposition Xrotation Yrotation Zrotation
	JOINT Spine
	{
		OFFSET 0.000000 13.784798 0.064400
		CHANNELS 3 Xrotation Yrotation Zrotation
		JOINT Spine1
		{
			OFFSET 0.000000 12.037903 0.404700
			CHANNELS 3 Xrotation Yrotation Zrotation
			JOINT Spine2
			{
				OFFSET 0.000000 17.795601 0.420200
				CHANNELS 3 Xrotation Yrotation Zrotation
				JOINT Neck
				{
					OFFSET 0.000000 39.131302 11.954600
					CHANNELS 3 Xrotation Yrotation Zrotation
					JOINT Head
					{
						OFFSET 0.000000 14.456192 15.627699
						CHANNELS 3 Xrotation Yrotation Zrotation
						JOINT HeadTop_End
						{
							OFFSET 0.000000 15.703506 7.603401
							CHANNELS 3 Xrotation Yrotation Zrotation
							End Site
							{
								OFFSET 0.000000 17.447403 0.000000
							}
						}
					}
				}
				JOINT LeftShoulder
				{
					OFFSET 17.399500 24.608795 1.168800
					CHANNELS 3 Xrotation Yrotation Zrotation
					JOINT LeftArm
					{
						OFFSET 18.980635 5.765305 1.818600
						CHANNELS 3 Xrotation Yrotation Zrotation
						JOINT LeftForeArm
						{
							OFFSET 49.290169 0.000000 0.000000
							CHANNELS 3 Xrotation Yrotation Zrotation
							JOINT LeftHand
							{
								OFFSET 31.562012 0.000000 0.000000
								CHANNELS 3 Xrotation Yrotation Zrotation
								JOINT LeftHandThumb1
								{
									OFFSET 6.133995 -4.388519 7.076070
									CHANNELS 3 Xrotation Yrotation Zrotation
									JOINT LeftHandThumb2
									{
										OFFSET 6.037666 -3.485840 3.485847
										CHANNELS 3 Xrotation Yrotation Zrotation
										JOINT LeftHandThumb3
										{
											OFFSET 6.496506 -3.750763 3.750761
											CHANNELS 3 Xrotation Yrotation Zrotation
											JOINT LeftHandThumb4
											{
												OFFSET 5.616882 -3.242905 3.242910
												CHANNELS 3 Xrotation Yrotation Zrotation
												End Site
												{
													OFFSET -1.254608 7.132141 0.375429
												}
											}
										}
									}
								}
								JOINT LeftHandPinky1
								{
									OFFSET 18.920792 -0.453171 -11.426712
									CHANNELS 3 Xrotation Yrotation Zrotation
									JOINT LeftHandPinky2
									{
										OFFSET 4.919586 0.000000 0.000000
										CHANNELS 3 Xrotation Yrotation Zrotation
										JOINT LeftHandPinky3
										{
											OFFSET 5.233047 0.000000 0.000000
											CHANNELS 3 Xrotation Yrotation Zrotation
											JOINT LeftHandPinky4
											{
												OFFSET 5.571716 0.000000 0.000000
												CHANNELS 3 Xrotation Yrotation Zrotation
												End Site
												{
													OFFSET -3.459808 4.342407 -0.466164
												}
											}
										}
									}
								}
								JOINT LeftHandRing1
								{
									OFFSET 22.726120 -0.094986 -6.500475
									CHANNELS 3 Xrotation Yrotation Zrotation
									JOINT LeftHandRing2
									{
										OFFSET 6.408615 0.000000 0.000000
										CHANNELS 3 Xrotation Yrotation Zrotation
										JOINT LeftHandRing3
										{
											OFFSET 6.150223 0.000000 0.000000
											CHANNELS 3 Xrotation Yrotation Zrotation
											JOINT LeftHandRing4
											{
												OFFSET 6.145386 0.000000 0.000000
												CHANNELS 3 Xrotation Yrotation Zrotation
												End Site
												{
													OFFSET -3.671402 4.923981 -0.202372
												}
											}
										}
									}
								}
								JOINT LeftHandMiddle1
								{
									OFFSET 23.373947 0.000000 0.000001
									CHANNELS 3 Xrotation Yrotation Zrotation
									JOINT LeftHandMiddle2
									{
										OFFSET 6.996567 0.000000 0.000000
										CHANNELS 3 Xrotation Yrotation Zrotation
										JOINT LeftHandMiddle3
										{
											OFFSET 7.015945 0.000000 0.000000
											CHANNELS 3 Xrotation Yrotation Zrotation
											JOINT LeftHandMiddle4
											{
												OFFSET 7.721573 0.000000 0.000000
												CHANNELS 3 Xrotation Yrotation Zrotation
												End Site
												{
													OFFSET -4.651108 6.158463 0.251582
												}
											}
										}
									}
								}
								JOINT LeftHandIndex1
								{
									OFFSET 21.310577 -0.490082 6.209344
									CHANNELS 3 Xrotation Yrotation Zrotation
									JOINT LeftHandIndex2
									{
										OFFSET 7.536453 0.000000 0.000000
										CHANNELS 3 Xrotation Yrotation Zrotation
										JOINT LeftHandIndex3
										{
											OFFSET 7.512344 0.000000 0.000000
											CHANNELS 3 Xrotation Yrotation Zrotation
											JOINT LeftHandIndex4
											{
												OFFSET 10.212402 0.000000 0.000001
												CHANNELS 3 Xrotation Yrotation Zrotation
												End Site
												{
													OFFSET -5.180801 8.690506 1.388433
												}
											}
										}
									}
								}
							}
						}
					}
				}
				JOINT RightShoulder
				{
					OFFSET -17.399500 24.608795 1.168800
					CHANNELS 3 Xrotation Yrotation Zrotation
					JOINT RightArm
					{
						OFFSET -18.980635 5.765305 1.818600
						CHANNELS 3 Xrotation Yrotation Zrotation
						JOINT RightForeArm
						{
							OFFSET -49.290169 0.000000 0.000000
							CHANNELS 3 Xrotation Yrotation Zrotation
							JOINT RightHand
							{
								OFFSET -31.562012 0.000000 0.000000
								CHANNELS 3 Xrotation Yrotation Zrotation
								JOINT RightHandThumb1
								{
									OFFSET -6.133995 -4.388519 7.076070
									CHANNELS 3 Xrotation Yrotation Zrotation
									JOINT RightHandThumb2
									{
										OFFSET -6.037666 -3.485840 3.485847
										CHANNELS 3 Xrotation Yrotation Zrotation
										JOINT RightHandThumb3
										{
											OFFSET -6.496506 -3.750763 3.750761
											CHANNELS 3 Xrotation Yrotation Zrotation
											JOINT RightHandThumb4
											{
												OFFSET -5.616882 -3.242905 3.242910
												CHANNELS 3 Xrotation Yrotation Zrotation
												End Site
												{
													OFFSET 1.254608 7.132141 0.375429
												}
											}
										}
									}
								}
								JOINT RightHandIndex1
								{
									OFFSET -21.310577 -0.490082 6.209344
									CHANNELS 3 Xrotation Yrotation Zrotation
									JOINT RightHandIndex2
									{
										OFFSET -7.536453 0.000000 0.000000
										CHANNELS 3 Xrotation Yrotation Zrotation
										JOINT RightHandIndex3
										{
											OFFSET -7.512344 0.000000 0.000000
											CHANNELS 3 Xrotation Yrotation Zrotation
											JOINT RightHandIndex4
											{
												OFFSET -10.212402 0.000000 0.000001
												CHANNELS 3 Xrotation Yrotation Zrotation
												End Site
												{
													OFFSET 5.180801 8.690506 1.388433
												}
											}
										}
									}
								}
								JOINT RightHandMiddle1
								{
									OFFSET -23.373947 0.000000 0.000001
									CHANNELS 3 Xrotation Yrotation Zrotation
									JOINT RightHandMiddle2
									{
										OFFSET -6.996567 0.000000 0.000000
										CHANNELS 3 Xrotation Yrotation Zrotation
										JOINT RightHandMiddle3
										{
											OFFSET -7.015945 0.000000 0.000000
											CHANNELS 3 Xrotation Yrotation Zrotation
											JOINT RightHandMiddle4
											{
												OFFSET -7.721573 0.000000 0.000000
												CHANNELS 3 Xrotation Yrotation Zrotation
												End Site
												{
													OFFSET 4.651108 6.158463 0.251582
												}
											}
										}
									}
								}
								JOINT RightHandRing1
								{
									OFFSET -22.726120 -0.094986 -6.500475
									CHANNELS 3 Xrotation Yrotation Zrotation
									JOINT RightHandRing2
									{
										OFFSET -6.408615 0.000000 0.000000
										CHANNELS 3 Xrotation Yrotation Zrotation
										JOINT RightHandRing3
										{
											OFFSET -6.150223 0.000000 0.000000
											CHANNELS 3 Xrotation Yrotation Zrotation
											JOINT RightHandRing4
											{
												OFFSET -6.145386 0.000000 0.000000
												CHANNELS 3 Xrotation Yrotation Zrotation
												End Site
												{
													OFFSET 3.671402 4.923981 -0.202372
												}
											}
										}
									}
								}
								JOINT RightHandPinky1
								{
									OFFSET -18.920792 -0.453171 -11.426712
									CHANNELS 3 Xrotation Yrotation Zrotation
									JOINT RightHandPinky2
									{
										OFFSET -4.919586 0.000000 0.000000
										CHANNELS 3 Xrotation Yrotation Zrotation
										JOINT RightHandPinky3
										{
											OFFSET -5.233047 0.000000 0.000000
											CHANNELS 3 Xrotation Yrotation Zrotation
											JOINT RightHandPinky4
											{
												OFFSET -5.571716 0.000000 0.000000
												CHANNELS 3 Xrotation Yrotation Zrotation
												End Site
												{
													OFFSET 3.459808 4.342407 -0.466164
												}
											}
										}
									}
								}
							}
						}
					}
				}
			}
		}
	}
	JOINT LeftUpLeg
	{
		OFFSET 19.899099 -7.885101 -3.429500
		CHANNELS 3 Xrotation Yrotation Zrotation
		JOINT LeftLeg
		{
			OFFSET 1.745560 -36.997807 10.304700
			CHANNELS 3 Xrotation Yrotation Zrotation
			JOINT LeftFoot
			{
				OFFSET -1.745558 -29.803308 -13.615400
				CHANNELS 3 Xrotation Yrotation Zrotation
				JOINT LeftToeBase
				{
					OFFSET 1.181900 -18.539904 15.226099
					CHANNELS 3 Xrotation Yrotation Zrotation
					JOINT LeftToe_End
					{
						OFFSET -0.863701 1.402801 16.534700
						CHANNELS 3 Xrotation Yrotation Zrotation
						End Site
						{
							OFFSET 0.000000 16.616566 0.000000
						}
					}
				}
			}
		}
	}
	JOINT RightUpLeg
	{
		OFFSET -19.899099 -7.885101 -3.429500
		CHANNELS 3 Xrotation Yrotation Zrotation
		JOINT RightLeg
		{
			OFFSET -1.745560 -36.997807 10.304700
			CHANNELS 3 Xrotation Yrotation Zrotation
			JOINT RightFoot
			{
				OFFSET 1.745558 -29.803308 -13.615400
				CHANNELS 3 Xrotation Yrotation Zrotation
				JOINT RightToeBase
				{
					OFFSET -1.181900 -18.539904 15.226099
					CHANNELS 3 Xrotation Yrotation Zrotation
					JOINT RightToe_End
					{
						OFFSET 0.863701 1.402801 16.534700
						CHANNELS 3 Xrotation Yrotation Zrotation
						End Site
						{
							OFFSET 0.000000 16.616566 0.000000
						}
					}
				}
			}
		}
	}
}
MOTION
Frames: 5
Frame Time: 0.033333
124.502075 58.312630 8.369009 38.303906 -52.692007 30.192011 24.580500 1.375762 -7.886942 8.206291 0.851098 -1.225088 8.151772 0.765181 -1.477582 -19.556597 25.524741 -9.974886 -26.725436 21.932794 2.388409 0.000000 -0.000000 -0.000000 6.219626 -11.632635 -9.973101 -75.545458 -11.257859 -24.019655 34.036219 -20.617092 17.509103 -6.124136 -4.211837 11.998760 40.109951 -15.297061 -0.360014 5.639653 28.097537 11.338841 1.088558 40.898411 22.734392 -0.000002 -0.000000 -0.000002 -17.947273 14.755065 -51.486099 8.868903 8.666900 -84.812399 4.537770 8.851090 -59.152621 -0.000001 0.000002 -0.000002 -9.042929 10.045778 -60.766110 8.524229 9.508778 -66.893807 6.575024 9.896220 -70.384232 -0.000000 -0.000000 0.000005 -2.346195 4.689417 -62.655060 8.754231 9.897023 -87.051362 1.994931 4.928638 -37.483532 -0.000001 0.000000 0.000009 6.881590 2.840469 -61.140513 8.247849 7.639977 -89.898294 2.146521 8.173786 -41.827010 -0.000003 0.000005 0.000000 6.589746 20.874745 26.418895 -22.648042 10.603771 11.634017 -30.487202 10.990541 7.045522 -1.543729 2.296679 -5.138333 -1.642632 -5.178130 7.424960 2.839457 -25.222774 -9.072346 0.880867 2.622942 2.111509 -0.000000 -0.000002 -0.000000 -1.250589 4.838515 -3.571620 0.023462 -0.087512 3.631656 -0.106580 -2.005689 -2.408472 -0.000005 -0.000003 -0.000001 -0.997282 -2.616540 1.224615 1.322594 -4.244711 23.648364 0.150640 1.670678 -2.002132 -0.000001 0.000000 -0.000004 -1.802103 -8.672686 3.617591 1.974087 -3.684879 25.578249 1.523739 -3.927063 18.423682 -0.000003 0.000002 -0.000005 -0.133911 -16.394699 12.898937 3.428885 -1.973811 20.417756 6.615366 -4.675898 30.540924 -0.000000 -0.000001 0.000000 -84.353820 25.867601 -13.330159 14.498968 14.004624 -2.478668 40.103688 -3.047039 25.735294 -1.583728 -0.096059 3.151955 0.000001 0.000003 0.000001 -3.080318 10.983048 20.735612 55.420626 -22.850963 -4.944084 -74.406578 -2.257328 2.156190 -4.556490 -1.357958 0.526198 -0.000000 -0.000002 -0.000000 
129.505157 58.722015 7.913189 37.961082 -53.043799 29.758216 25.118212 1.320774 -7.586743 8.512101 0.868594 -1.219538 8.461580 0.796100 -1.477279 -19.266024 25.466155 -10.069684 -27.266679 21.834764 2.300216 0.000001 -0.000000 -0.000000 6.012459 -12.541822 -10.372190 -76.088184 -11.449203 -23.474725 33.931465 -19.861072 17.152815 -6.159250 -4.093566 11.835744 40.109951 -15.297064 -0.360013 5.639650 28.097537 11.338838 1.088557 40.898404 22.734394 0.000001 0.000003 -0.000002 -17.947273 14.755066 -51.486099 8.868902 8.666896 -84.812399 4.537769 8.851090 -59.152614 -0.000001 0.000000 -0.000002 -9.042929 10.045777 -60.766117 8.524229 9.508778 -66.893807 6.575023 9.896221 -70.384225 -0.000001 0.000001 0.000003 -2.346194 4.689416 -62.655067 8.754233 9.897022 -87.051355 1.994930 4.928639 -37.483532 -0.000000 -0.000000 0.000002 6.881588 2.840468 -61.140520 8.247845 7.639981 -89.898301 2.146520 8.173789 -41.827013 -0.000002 0.000003 0.000001 7.242417 21.034078 24.927081 -23.564433 12.504291 12.300463 -31.188467 8.745776 6.153736 -1.553451 3.013818 -5.870454 -1.376014 -5.874968 7.612680 2.860089 -25.310569 -9.078214 0.990366 2.405246 2.054134 0.000002 0.000000 0.000001 -1.067678 3.799143 -1.983713 0.024372 -0.087177 4.541828 -0.109828 -2.005429 -2.388531 -0.000001 -0.000002 0.000003 -0.811453 -3.122524 2.080540 1.342580 -4.242917 24.396830 0.143161 1.672022 -1.179582 -0.000003 -0.000002 -0.000007 -1.416926 -9.010532 4.912233 2.003437 -3.666004 27.053870 1.553565 -3.911996 19.863305 -0.000001 0.000002 -0.000005 0.036745 -16.459702 12.807307 3.431631 -1.972586 20.321068 6.617971 -4.671352 30.609889 -0.000000 0.000000 0.000000 -85.992184 25.501076 -12.671671 13.178923 1.856365 -3.096075 44.657778 -6.695923 5.380753 0.079994 0.032522 -0.111080 0.000002 -0.000001 -0.000002 -8.709781 11.481563 19.763890 61.113370 -24.195032 -5.109938 -75.514073 -4.902350 4.188859 -1.049186 -1.463147 0.858265 -0.000000 -0.000001 0.000000 
135.108627 59.729881 6.937366 37.316745 -52.613313 28.821510 25.584014 0.854970 -6.791659 8.660075 0.686755 -1.165523 8.615741 0.613601 -1.401771 -19.241266 25.489412 -10.213092 -27.806368 21.659148 2.433938 -0.000000 -0.000000 0.000000 5.834021 -13.327718 -10.706656 -76.589787 -11.406777 -23.066136 33.973484 -19.596779 17.266214 -6.091969 -3.769802 11.538543 40.109955 -15.297059 -0.360016 5.639649 28.097537 11.338844 1.088555 40.898415 22.734399 0.000001 -0.000000 0.000000 -17.947268 14.755063 -51.486099 8.868901 8.666900 -84.812399 4.537772 8.851086 -59.152614 0.000002 0.000001 0.000001 -9.042927 10.045776 -60.766110 8.524229 9.508775 -66.893807 6.575023 9.896220 -70.384225 -0.000000 0.000000 0.000003 -2.346195 4.689416 -62.655060 8.754231 9.897022 -87.051348 1.994930 4.928637 -37.483535 0.000000 0.000000 0.000008 6.881591 2.840467 -61.140513 8.247851 7.639982 -89.898287 2.146522 8.173786 -41.827016 -0.000000 0.000001 0.000001 7.549158 21.182442 24.382783 -23.645376 13.368162 12.702868 -32.698766 7.942871 6.281303 -1.361033 2.989173 -7.083021 -1.198212 -6.427820 7.855606 2.931246 -25.574887 -9.102856 1.426612 1.501258 1.814895 0.000002 0.000000 0.000001 -0.839229 2.837723 -0.549182 0.020556 -0.087107 5.268952 -0.108482 -2.006403 -2.333303 0.000000 -0.000003 -0.000004 -0.619604 -3.601254 2.770314 1.359480 -4.240404 24.969271 0.135190 1.673077 -0.545619 0.000001 -0.000001 -0.000004 -1.022782 -9.346389 5.907179 2.020855 -3.654826 28.206060 1.570592 -3.903633 20.980142 -0.000002 -0.000000 -0.000003 0.212897 -16.547308 12.776575 3.433610 -1.973987 20.294681 6.618326 -4.669934 30.717154 -0.000002 -0.000004 -0.000003 -87.600448 27.441151 -10.118930 23.354503 -0.613764 -3.594729 36.276309 -6.370195 -2.086553 -0.008842 0.062439 -0.008924 0.000001 0.000003 -0.000002 -16.271717 10.031957 18.449620 67.472529 -23.038110 -4.901370 -73.378102 -6.556163 5.709817 -0.998634 -1.463050 0.858244 0.000000 0.000001 0.000000 
141.198685 61.138367 5.622688 36.657717 -51.608045 27.919305 26.000490 0.131605 -5.888500 8.640071 0.299848 -1.033458 8.604788 0.209226 -1.221036 -19.464079 25.605631 -10.448110 -28.348314 21.404249 2.782043 0.000001 0.000000 0.000001 5.809071 -13.685172 -10.818025 -77.054752 -10.899346 -23.091099 34.256664 -20.144977 18.188176 -5.935077 -3.162236 11.087567 40.109944 -15.297061 -0.360015 5.639659 28.097532 11.338834 1.088554 40.898408 22.734394 0.000003 0.000001 0.000000 -17.947271 14.755068 -51.486092 8.868899 8.666898 -84.812399 4.537768 8.851085 -59.152614 0.000002 -0.000001 -0.000006 -9.042930 10.045778 -60.766110 8.524229 9.508776 -66.893814 6.575024 9.896224 -70.384218 -0.000000 -0.000001 0.000003 -2.346193 4.689417 -62.655060 8.754233 9.897022 -87.051348 1.994930 4.928638 -37.483532 0.000001 -0.000000 0.000001 6.881592 2.840469 -61.140513 8.247849 7.639980 -89.898294 2.146523 8.173784 -41.827010 -0.000002 0.000003 0.000001 7.645281 21.199143 24.603130 -23.333956 12.970627 12.934561 -34.218872 8.915027 7.362260 -1.065967 2.104414 -8.543281 -1.148224 -6.764783 8.169913 2.970506 -25.734797 -9.111357 1.558214 1.233276 1.743932 -0.000001 -0.000001 -0.000000 -0.628067 2.111074 0.422438 0.018505 -0.088871 5.689587 -0.102399 -2.008190 -2.284455 -0.000001 0.000000 -0.000003 -0.434664 -4.040175 3.206784 1.374034 -4.236376 25.270595 0.127761 1.670594 -0.215353 0.000002 -0.000000 -0.000004 -0.635548 -9.682600 6.462978 2.021701 -3.653971 28.864335 1.569785 -3.903313 21.609755 0.000001 0.000004 -0.000005 0.438262 -16.730121 12.980754 3.434900 -1.982653 20.540351 6.613221 -4.678801 30.968248 0.000004 -0.000000 0.000002 -90.252795 28.375707 -5.604015 40.709109 1.170824 -3.872608 21.711863 -4.304912 2.849073 0.014097 0.017297 -0.038526 -0.000000 0.000001 -0.000003 -24.787458 7.921402 16.151563 72.392786 -20.683097 -4.462820 -69.248440 -7.077471 6.747750 -0.948080 -1.463093 0.858219 0.000000 0.000001 0.000000 
146.788696 61.949738 4.724199 36.269261 -50.487123 27.305384 26.355407 -0.478598 -5.093942 8.487479 -0.231444 -0.825495 8.463569 -0.359921 -0.947265 -19.838303 25.808259 -10.829837 -28.872169 21.096400 3.284628 -0.000000 0.000000 0.000000 6.249113 -13.066411 -10.392135 -77.523392 -9.535370 -24.091302 34.983191 -21.947766 20.452949 -5.750276 -2.263631 10.525626 40.109955 -15.297061 -0.360014 5.639648 28.097537 11.338837 1.088556 40.898411 22.734397 -0.000001 0.000001 0.000000 -17.947268 14.755063 -51.486096 8.868899 8.666901 -84.812399 4.537769 8.851087 -59.152614 -0.000003 0.000004 0.000002 -9.042929 10.045777 -60.766117 8.524229 9.508778 -66.893807 6.575022 9.896222 -70.384225 0.000000 0.000000 0.000003 -2.346194 4.689417 -62.655067 8.754231 9.897022 -87.051348 1.994930 4.928638 -37.483528 -0.000000 0.000001 0.000004 6.881592 2.840469 -61.140520 8.247849 7.639974 -89.898294 2.146523 8.173785 -41.827013 -0.000001 0.000001 0.000001 7.616908 20.952439 25.024398 -23.056169 11.866569 13.334493 -34.636330 10.848049 8.568476 -0.904965 0.803323 -9.627969 -1.253071 -6.847063 8.581071 2.925106 -25.602708 -9.080587 0.970902 2.472492 2.066195 0.000001 -0.000002 -0.000001 -0.469787 1.635565 0.855487 0.018041 -0.090645 5.802413 -0.087389 -2.010209 -2.273585 -0.000003 -0.000001 -0.000001 -0.262440 -4.440588 3.341450 1.386923 -4.230283 25.270896 0.123436 1.669931 -0.209958 0.000000 0.000000 -0.000004 -0.254224 -10.042561 6.479625 1.999730 -3.666088 28.949829 1.544774 -3.913410 21.669352 -0.000000 -0.000001 -0.000007 0.736729 -17.072348 12.995048 3.425884 -1.999785 20.585186 6.587401 -4.716751 30.955777 -0.000001 -0.000005 0.000003 -93.241849 26.925910 0.699192 57.325976 0.932455 -3.414957 8.597539 -2.393814 4.119949 -0.175641 -0.002917 0.772563 -0.000000 -0.000003 -0.000001 -32.502381 6.498805 13.070431 76.220314 -17.994627 -3.874220 -65.127418 -7.390373 7.744477 -0.897485 -1.463152 0.858191 0.000000 0.000000 0.000000 
